# xmcd
#
# Track frame offsets:
#   150
#   14505
#   26404
#   40135
#   54078
#   69397
#   83855
#   97449
#   112236
#   127285
#   143422
#   156965
#   170649
#   185852
#   199353
#   215463
#   230492
#
# Disc length: 3269 seconds
#
# Revision: 0
# Processed by: cddbd v1.5.2PL0 Copyright (c) Steve Scherf et al.
# Submitted via: uFREEDB ActiveX Control 1.5
#
DISCID=000cc311
DTITLE=Furacão do Forró - Vol. 1
DYEAR=2007
DGENRE=Country
TTITLE0=Tá rolando um zum-zum-zum
TTITLE1=Sempre julga esse amor
TTITLE2=Eu me toquei
TTITLE3=Fera Solta
TTITLE4=Por amor
TTITLE5=Tum-tum-tum apaixonado
TTITLE6=O som do furacão
TTITLE7=Chega de terê-te-tê
TTITLE8=Acabou, acabou
TTITLE9=É o meu jeito
TTITLE10=Nada de você
TTITLE11=O amor maior do mundo
TTITLE12=Vergonha na cara
TTITLE13=Loucos apaixonados
TTITLE14=Cabo de vassoura
TTITLE15=A mulher gosta
TTITLE16=Swingueira
EXTD=
EXTT0=
EXTT1=
EXTT2=
EXTT3=
EXTT4=
EXTT5=
EXTT6=
EXTT7=
EXTT8=
EXTT9=
EXTT10=
EXTT11=
EXTT12=
EXTT13=
EXTT14=
EXTT15=
EXTT16=
PLAYORDER=
